GSerif01-TextRegular04.ufo
<glyph name="seven" format="1">
  <advance width="524"/>
  <unicode hex="0037"/>
  <outline>
    <contour>
      <point x="112" y="0" type="line"/>
      <point x="297" y="259"/>
      <point x="425" y="456"/>
      <point x="425" y="665" type="curve"/>
      <point x="443" y="636" type="line"/>
      <point x="93" y="636" type="line"/>
      <point x="97" y="657" type="line"/>
      <point x="97" y="504" type="line"/>
      <point x="40" y="504" type="line"/>
      <point x="40" y="710" type="line"/>
      <point x="486" y="710" type="line"/>
      <point x="486" y="668" type="line" smooth="yes"/>
      <point x="486" y="442"/>
      <point x="386" y="248"/>
      <point x="226" y="0" type="curve"/>
    </contour>
  </outline>
</glyph>
<glyph name="C" format="1">
  <advance width="746"/>
  <unicode hex="0043"/>
  <outline>
    <contour>
      <point x="52" y="355" type="curve" smooth="yes"/>
      <point x="52" y="138"/>
      <point x="202" y="-10"/>
      <point x="406" y="-10" type="curve" smooth="yes"/>
      <point x="567" y="-10"/>
      <point x="678" y="86"/>
      <point x="711" y="223" type="curve"/>
      <point x="656" y="241" type="line"/>
      <point x="628" y="129"/>
      <point x="542" y="46"/>
      <point x="412" y="46" type="curve" smooth="yes"/>
      <point x="256" y="46"/>
      <point x="150" y="168"/>
      <point x="150" y="355" type="curve" smooth="yes"/>
      <point x="150" y="544"/>
      <point x="256" y="669"/>
      <point x="419" y="669" type="curve" smooth="yes"/>
      <point x="525" y="669"/>
      <point x="605" y="618"/>
      <point x="633" y="558" type="curve"/>
      <point x="640" y="596"/>
      <point x="617" y="620"/>
      <point x="590" y="618" type="curve"/>
      <point x="590" y="508" type="line"/>
      <point x="687" y="508" type="line"/>
      <point x="687" y="606" type="line"/>
      <point x="657" y="659"/>
      <point x="556" y="720"/>
      <point x="419" y="720" type="curve" smooth="yes"/>
      <point x="204" y="720"/>
      <point x="52" y="569"/>
    </contour>
  </outline>
</glyph>
<glyph name="E" format="1">
  <advance width="647"/>
  <unicode hex="0045"/>
  <outline>
    <contour>
      <point x="145" y="0" type="line"/>
      <point x="238" y="0" type="line"/>
      <point x="238" y="710" type="line"/>
      <point x="145" y="710" type="line"/>
    </contour>
    <contour>
      <point x="208" y="388" type="line"/>
      <point x="208" y="338" type="line"/>
      <point x="454" y="338" type="line"/>
      <point x="454" y="388" type="line"/>
    </contour>
    <contour>
      <point x="51" y="710" type="line"/>
      <point x="51" y="669" type="line"/>
      <point x="61" y="669" type="line" smooth="yes"/>
      <point x="108" y="669"/>
      <point x="145" y="662"/>
      <point x="145" y="633" type="curve"/>
      <point x="202" y="659" type="line"/>
      <point x="370" y="659" type="line" smooth="yes"/>
      <point x="456" y="659"/>
      <point x="490" y="650"/>
      <point x="495" y="612" type="curve" smooth="yes"/>
      <point x="507" y="522" type="line"/>
      <point x="555" y="522" type="line"/>
      <point x="555" y="710" type="line"/>
    </contour>
    <contour>
      <point x="51" y="0" type="line"/>
      <point x="582" y="0" type="line"/>
      <point x="582" y="213" type="line"/>
      <point x="533" y="213" type="line"/>
      <point x="522" y="98" type="line" smooth="yes"/>
      <point x="517" y="60"/>
      <point x="482" y="51"/>
      <point x="396" y="51" type="curve" smooth="yes"/>
      <point x="201" y="51" type="line"/>
      <point x="145" y="77" type="line"/>
      <point x="145" y="48"/>
      <point x="108" y="41"/>
      <point x="61" y="41" type="curve" smooth="yes"/>
      <point x="51" y="41" type="line"/>
    </contour>
  </outline>
</glyph>
<glyph name="G" format="1">
  <advance width="809"/>
  <unicode hex="0047"/>
  <outline>
    <contour>
      <point x="152" y="355" type="curve" smooth="yes"/>
      <point x="152" y="544"/>
      <point x="265" y="669"/>
      <point x="430" y="669" type="curve" smooth="yes"/>
      <point x="540" y="669"/>
      <point x="624" y="615"/>
      <point x="650" y="556" type="curve"/>
      <point x="659" y="594"/>
      <point x="636" y="623"/>
      <point x="607" y="622" type="curve"/>
      <point x="607" y="508" type="line"/>
      <point x="704" y="508" type="line"/>
      <point x="704" y="605" type="line"/>
      <point x="674" y="658"/>
      <point x="572" y="720"/>
      <point x="430" y="720" type="curve" smooth="yes"/>
      <point x="213" y="720"/>
      <point x="52" y="569"/>
      <point x="52" y="355" type="curve" smooth="yes"/>
      <point x="52" y="137"/>
      <point x="201" y="-10"/>
      <point x="426" y="-10" type="curve" smooth="yes"/>
      <point x="552" y="-10"/>
      <point x="672" y="59"/>
      <point x="712" y="121" type="curve"/>
      <point x="712" y="311" type="line"/>
      <point x="622" y="319" type="line"/>
      <point x="622" y="124" type="line"/>
      <point x="600" y="99"/>
      <point x="531" y="45"/>
      <point x="427" y="45" type="curve" smooth="yes"/>
      <point x="254" y="45"/>
      <point x="152" y="164"/>
    </contour>
    <contour>
      <point x="712" y="270" type="line"/>
      <point x="712" y="300"/>
      <point x="745" y="306"/>
      <point x="784" y="306" type="curve" smooth="yes"/>
      <point x="789" y="306" type="line"/>
      <point x="789" y="348" type="line"/>
      <point x="526" y="348" type="line"/>
      <point x="526" y="306" type="line"/>
      <point x="536" y="306" type="line" smooth="yes"/>
      <point x="586" y="306"/>
      <point x="622" y="300"/>
      <point x="622" y="270" type="curve"/>
    </contour>
  </outline>
</glyph>
<glyph name="I" format="1">
  <advance width="383"/>
  <unicode hex="0049"/>
  <outline>
    <contour>
      <point x="145" y="0" type="line"/>
      <point x="238" y="0" type="line"/>
      <point x="238" y="710" type="line"/>
      <point x="145" y="710" type="line"/>
    </contour>
    <contour>
      <point x="238" y="633" type="line"/>
      <point x="238" y="662"/>
      <point x="274" y="669"/>
      <point x="322" y="669" type="curve"/>
      <point x="331" y="669" type="line"/>
      <point x="331" y="710" type="line"/>
      <point x="51" y="710" type="line"/>
      <point x="51" y="669" type="line"/>
      <point x="61" y="669" type="line"/>
      <point x="108" y="669"/>
      <point x="145" y="662"/>
      <point x="145" y="633" type="curve"/>
    </contour>
    <contour>
      <point x="145" y="77" type="line"/>
      <point x="145" y="48"/>
      <point x="108" y="41"/>
      <point x="61" y="41" type="curve"/>
      <point x="51" y="41" type="line"/>
      <point x="51" y="0" type="line"/>
      <point x="331" y="0" type="line"/>
      <point x="331" y="41" type="line"/>
      <point x="322" y="41" type="line"/>
      <point x="274" y="41"/>
      <point x="238" y="48"/>
      <point x="238" y="77" type="curve"/>
    </contour>
  </outline>
</glyph>
<glyph name="J" format="1">
  <advance width="522"/>
  <unicode hex="004A"/>
  <outline>
    <contour>
      <point x="40" y="9" type="line"/>
      <point x="73" y="-3"/>
      <point x="112" y="-10"/>
      <point x="164" y="-10" type="curve" smooth="yes"/>
      <point x="293" y="-10"/>
      <point x="380" y="58"/>
      <point x="380" y="247" type="curve" smooth="yes"/>
      <point x="380" y="710" type="line"/>
      <point x="287" y="710" type="line"/>
      <point x="287" y="247" type="line" smooth="yes"/>
      <point x="287" y="88"/>
      <point x="240" y="43"/>
      <point x="162" y="43" type="curve" smooth="yes"/>
      <point x="121" y="43"/>
      <point x="84" y="53"/>
      <point x="40" y="69" type="curve"/>
    </contour>
    <contour>
      <point x="380" y="633" type="line"/>
      <point x="380" y="662"/>
      <point x="416" y="669"/>
      <point x="464" y="669" type="curve" smooth="yes"/>
      <point x="473" y="669" type="line"/>
      <point x="473" y="710" type="line"/>
      <point x="182" y="710" type="line"/>
      <point x="182" y="669" type="line"/>
      <point x="202" y="669" type="line" smooth="yes"/>
      <point x="250" y="669"/>
      <point x="287" y="662"/>
      <point x="287" y="633" type="curve"/>
    </contour>
  </outline>
</glyph>
<glyph name="L" format="1">
  <advance width="623"/>
  <unicode hex="004C"/>
  <outline>
    <contour>
      <point x="51" y="0" type="line"/>
      <point x="575" y="0" type="line"/>
      <point x="575" y="222" type="line"/>
      <point x="523" y="222" type="line"/>
      <point x="512" y="98" type="line" smooth="yes"/>
      <point x="508" y="60"/>
      <point x="472" y="51"/>
      <point x="386" y="51" type="curve" smooth="yes"/>
      <point x="193" y="51" type="line"/>
      <point x="145" y="77" type="line"/>
      <point x="145" y="48"/>
      <point x="108" y="41"/>
      <point x="61" y="41" type="curve" smooth="yes"/>
      <point x="51" y="41" type="line"/>
    </contour>
    <contour>
      <point x="145" y="0" type="line"/>
      <point x="238" y="0" type="line"/>
      <point x="238" y="710" type="line"/>
      <point x="145" y="710" type="line"/>
    </contour>
    <contour>
      <point x="334" y="710" type="line"/>
      <point x="51" y="710" type="line"/>
      <point x="51" y="669" type="line"/>
      <point x="61" y="669" type="line" smooth="yes"/>
      <point x="108" y="669"/>
      <point x="145" y="662"/>
      <point x="145" y="633" type="curve"/>
      <point x="238" y="639" type="line"/>
      <point x="238" y="663"/>
      <point x="276" y="669"/>
      <point x="324" y="669" type="curve" smooth="yes"/>
      <point x="334" y="669" type="line"/>
    </contour>
  </outline>
</glyph>
<glyph name="W" format="1">
  <advance width="1046"/>
  <unicode hex="0057"/>
  <outline>
    <contour>
      <point x="158" y="710" type="line"/>
      <point x="68" y="710" type="line"/>
      <point x="262" y="0" type="line"/>
      <point x="334" y="0" type="line"/>
      <point x="335" y="40" type="line"/>
    </contour>
    <contour>
      <point x="18" y="710" type="line"/>
      <point x="18" y="669" type="line"/>
      <point x="23" y="669" type="line" smooth="yes"/>
      <point x="57" y="669"/>
      <point x="78" y="666"/>
      <point x="88" y="635" type="curve"/>
      <point x="172" y="658" type="line"/>
      <point x="172" y="666"/>
      <point x="218" y="669"/>
      <point x="257" y="669" type="curve" smooth="yes"/>
      <point x="275" y="669" type="line"/>
      <point x="275" y="710" type="line"/>
    </contour>
    <contour>
      <point x="976" y="710" type="line"/>
      <point x="920" y="710" type="line"/>
      <point x="736" y="0" type="line"/>
      <point x="789" y="0" type="line"/>
    </contour>
    <contour>
      <point x="1028" y="710" type="line"/>
      <point x="804" y="710" type="line"/>
      <point x="804" y="669" type="line"/>
      <point x="823" y="669" type="line" smooth="yes"/>
      <point x="867" y="669"/>
      <point x="904" y="660"/>
      <point x="904" y="649" type="curve"/>
      <point x="951" y="617" type="line"/>
      <point x="962" y="657"/>
      <point x="987" y="669"/>
      <point x="1022" y="669" type="curve" smooth="yes"/>
      <point x="1028" y="669" type="line"/>
    </contour>
    <contour>
      <point x="582" y="710" type="line"/>
      <point x="498" y="710" type="line"/>
      <point x="305" y="0" type="line"/>
      <point x="356" y="0" type="line"/>
      <point x="534" y="648" type="line"/>
      <point x="513" y="648" type="line"/>
      <point x="695" y="0" type="line"/>
      <point x="767" y="0" type="line"/>
      <point x="768" y="40" type="line"/>
    </contour>
  </outline>
</glyph>
<glyph name="Y" format="1">
  <advance width="672"/>
  <unicode hex="0059"/>
  <outline>
    <contour>
      <point x="293" y="0" type="line"/>
      <point x="386" y="0" type="line"/>
      <point x="386" y="321" type="line"/>
      <point x="293" y="321" type="line"/>
    </contour>
    <contour>
      <point x="617" y="708" type="line"/>
      <point x="556" y="710" type="line"/>
      <point x="338" y="317" type="line"/>
      <point x="371" y="331" type="line"/>
      <point x="144" y="710" type="line"/>
      <point x="52" y="708" type="line"/>
      <point x="309" y="275" type="line"/>
      <point x="372" y="273" type="line"/>
    </contour>
    <contour>
      <point x="656" y="710" type="line"/>
      <point x="425" y="710" type="line"/>
      <point x="425" y="669" type="line"/>
      <point x="443" y="669" type="line" smooth="yes"/>
      <point x="486" y="669"/>
      <point x="523" y="661"/>
      <point x="523" y="650" type="curve"/>
      <point x="565" y="617" type="line"/>
      <point x="590" y="660"/>
      <point x="617" y="669"/>
      <point x="650" y="669" type="curve" smooth="yes"/>
      <point x="656" y="669" type="line"/>
    </contour>
    <contour>
      <point x="16" y="710" type="line"/>
      <point x="16" y="669" type="line"/>
      <point x="22" y="669" type="line" smooth="yes"/>
      <point x="54" y="669"/>
      <point x="77" y="666"/>
      <point x="96" y="635" type="curve"/>
      <point x="175" y="658" type="line"/>
      <point x="175" y="666"/>
      <point x="220" y="669"/>
      <point x="256" y="669" type="curve" smooth="yes"/>
      <point x="273" y="669" type="line"/>
      <point x="273" y="710" type="line"/>
    </contour>
    <contour>
      <point x="193" y="0" type="line"/>
      <point x="486" y="0" type="line"/>
      <point x="486" y="41" type="line"/>
      <point x="470" y="41" type="line" smooth="yes"/>
      <point x="422" y="41"/>
      <point x="386" y="48"/>
      <point x="386" y="77" type="curve"/>
      <point x="293" y="77" type="line"/>
      <point x="293" y="48"/>
      <point x="256" y="41"/>
      <point x="209" y="41" type="curve" smooth="yes"/>
      <point x="193" y="41" type="line"/>
    </contour>
  </outline>
</glyph>
<glyph name="b" format="1">
  <advance width="679"/>
  <unicode hex="0062"/>
  <outline>
    <contour>
      <point x="532" y="273" type="curve" smooth="yes"/>
      <point x="532" y="134"/>
      <point x="477" y="42"/>
      <point x="374" y="42" type="curve" smooth="yes"/>
      <point x="292" y="42"/>
      <point x="226" y="89"/>
      <point x="180" y="188" type="curve"/>
      <point x="143" y="170" type="line"/>
      <point x="209" y="42"/>
      <point x="272" y="-11"/>
      <point x="377" y="-11" type="curve" smooth="yes"/>
      <point x="526" y="-11"/>
      <point x="627" y="105"/>
      <point x="627" y="273" type="curve" smooth="yes"/>
      <point x="627" y="439"/>
      <point x="529" y="550"/>
      <point x="384" y="550" type="curve" smooth="yes"/>
      <point x="276" y="550"/>
      <point x="216" y="490"/>
      <point x="146" y="362" type="curve"/>
      <point x="181" y="342" type="line"/>
      <point x="227" y="443"/>
      <point x="292" y="498"/>
      <point x="378" y="498" type="curve" smooth="yes"/>
      <point x="477" y="498"/>
      <point x="532" y="410"/>
    </contour>
    <contour>
      <point x="28" y="750" type="line"/>
      <point x="28" y="707" type="line"/>
      <point x="38" y="705" type="line" smooth="yes"/>
      <point x="90" y="696"/>
      <point x="114" y="689"/>
      <point x="114" y="660" type="curve" smooth="yes"/>
      <point x="114" y="-4" type="line"/>
      <point x="168" y="-4" type="line"/>
      <point x="194" y="105" type="line"/>
      <point x="204" y="118" type="line"/>
      <point x="204" y="750" type="line"/>
    </contour>
  </outline>
</glyph>
<glyph name="c" format="1">
  <advance width="586"/>
  <unicode hex="0063"/>
  <outline>
    <contour>
      <point x="332" y="42" type="curve" smooth="yes"/>
      <point x="223" y="42"/>
      <point x="146" y="131"/>
      <point x="146" y="265" type="curve" smooth="yes"/>
      <point x="146" y="404"/>
      <point x="217" y="496"/>
      <point x="323" y="496" type="curve" smooth="yes"/>
      <point x="401" y="496"/>
      <point x="452" y="456"/>
      <point x="475" y="400" type="curve"/>
      <point x="483" y="446"/>
      <point x="472" y="470"/>
      <point x="445" y="468" type="curve"/>
      <point x="445" y="360" type="line"/>
      <point x="533" y="360" type="line"/>
      <point x="533" y="448" type="line"/>
      <point x="507" y="500"/>
      <point x="430" y="550"/>
      <point x="323" y="550" type="curve" smooth="yes"/>
      <point x="168" y="550"/>
      <point x="52" y="431"/>
      <point x="52" y="265" type="curve" smooth="yes"/>
      <point x="52" y="104"/>
      <point x="173" y="-12"/>
      <point x="328" y="-12" type="curve" smooth="yes"/>
      <point x="432" y="-12"/>
      <point x="503" y="40"/>
      <point x="543" y="108" type="curve"/>
      <point x="500" y="141" type="line"/>
      <point x="468" y="92"/>
      <point x="420" y="42"/>
    </contour>
  </outline>
</glyph>
<glyph name="k" format="1">
  <advance width="644"/>
  <unicode hex="006B"/>
  <outline>
    <contour>
      <point x="130" y="0" type="line"/>
      <point x="220" y="0" type="line"/>
      <point x="220" y="750" type="line"/>
      <point x="44" y="750" type="line"/>
      <point x="44" y="707" type="line"/>
      <point x="55" y="705" type="line" smooth="yes"/>
      <point x="107" y="696"/>
      <point x="130" y="689"/>
      <point x="130" y="660" type="curve" smooth="yes"/>
    </contour>
    <contour>
      <point x="45" y="0" type="line"/>
      <point x="296" y="0" type="line"/>
      <point x="296" y="40" type="line"/>
      <point x="295" y="40" type="line"/>
      <point x="265" y="40"/>
      <point x="220" y="44"/>
      <point x="220" y="56" type="curve"/>
      <point x="130" y="76" type="line"/>
      <point x="130" y="47"/>
      <point x="95" y="40"/>
      <point x="46" y="40" type="curve"/>
      <point x="45" y="40" type="line"/>
    </contour>
    <contour>
      <point x="315" y="321" type="line"/>
      <point x="307" y="283" type="line"/>
      <point x="548" y="512" type="line"/>
      <point x="534" y="537" type="line"/>
      <point x="501" y="537" type="line"/>
      <point x="239" y="289" type="line"/>
      <point x="239" y="284" type="line"/>
      <point x="495" y="0" type="line"/>
      <point x="568" y="0" type="line"/>
      <point x="573" y="37" type="line"/>
    </contour>
    <contour>
      <point x="630" y="0" type="line"/>
      <point x="630" y="40" type="line"/>
      <point x="629" y="40" type="line"/>
      <point x="595" y="40"/>
      <point x="564" y="48"/>
      <point x="536" y="76" type="curve"/>
      <point x="449" y="50" type="line"/>
      <point x="449" y="43"/>
      <point x="400" y="40"/>
      <point x="376" y="40" type="curve"/>
      <point x="376" y="40" type="line"/>
      <point x="376" y="0" type="line"/>
    </contour>
    <contour>
      <point x="360" y="540" type="line"/>
      <point x="360" y="500" type="line"/>
      <point x="360" y="500" type="line"/>
      <point x="391" y="500"/>
      <point x="442" y="497"/>
      <point x="442" y="481" type="curve"/>
      <point x="482" y="450" type="line"/>
      <point x="519" y="485"/>
      <point x="559" y="500"/>
      <point x="597" y="500" type="curve"/>
      <point x="598" y="500" type="line"/>
      <point x="598" y="540" type="line"/>
    </contour>
  </outline>
</glyph>
<glyph name="o" format="1">
  <advance width="642"/>
  <unicode hex="006F"/>
  <outline>
    <contour>
      <point x="321" y="-12" type="curve"/>
      <point x="477" y="-12"/>
      <point x="590" y="102"/>
      <point x="590" y="269" type="curve" smooth="yes"/>
      <point x="590" y="436"/>
      <point x="477" y="550"/>
      <point x="321" y="550" type="curve" smooth="yes"/>
      <point x="164" y="550"/>
      <point x="52" y="436"/>
      <point x="52" y="269" type="curve" smooth="yes"/>
      <point x="52" y="102"/>
      <point x="164" y="-12"/>
    </contour>
    <contour>
      <point x="321" y="40" type="curve"/>
      <point x="211" y="40"/>
      <point x="146" y="131"/>
      <point x="146" y="269" type="curve" smooth="yes"/>
      <point x="146" y="406"/>
      <point x="211" y="498"/>
      <point x="321" y="498" type="curve" smooth="yes"/>
      <point x="430" y="498"/>
      <point x="496" y="406"/>
      <point x="496" y="269" type="curve" smooth="yes"/>
      <point x="496" y="130"/>
      <point x="430" y="40"/>
    </contour>
  </outline>
</glyph>
<glyph name="q" format="1">
  <advance width="672"/>
  <unicode hex="0071"/>
  <outline>
    <contour>
      <point x="565" y="544" type="line"/>
      <point x="510" y="544" type="line"/>
      <point x="484" y="436" type="line"/>
      <point x="476" y="420" type="line"/>
      <point x="476" y="-210" type="line"/>
      <point x="565" y="-210" type="line"/>
    </contour>
    <contour>
      <point x="146" y="266" type="curve" smooth="yes"/>
      <point x="146" y="406"/>
      <point x="203" y="498"/>
      <point x="306" y="498" type="curve" smooth="yes"/>
      <point x="390" y="498"/>
      <point x="454" y="451"/>
      <point x="499" y="350" type="curve"/>
      <point x="536" y="369" type="line"/>
      <point x="472" y="498"/>
      <point x="409" y="550"/>
      <point x="303" y="550" type="curve" smooth="yes"/>
      <point x="153" y="550"/>
      <point x="52" y="435"/>
      <point x="52" y="266" type="curve" smooth="yes"/>
      <point x="52" y="100"/>
      <point x="151" y="-11"/>
      <point x="298" y="-11" type="curve" smooth="yes"/>
      <point x="405" y="-11"/>
      <point x="464" y="48"/>
      <point x="534" y="177" type="curve"/>
      <point x="498" y="196" type="line"/>
      <point x="453" y="96"/>
      <point x="389" y="42"/>
      <point x="303" y="42" type="curve" smooth="yes"/>
      <point x="203" y="42"/>
      <point x="146" y="130"/>
    </contour>
    <contour>
      <point x="651" y="-223" type="line"/>
      <point x="651" y="-183" type="line"/>
      <point x="650" y="-183" type="line"/>
      <point x="601" y="-183"/>
      <point x="565" y="-176"/>
      <point x="565" y="-147" type="curve"/>
      <point x="476" y="-173" type="line"/>
      <point x="476" y="-180"/>
      <point x="428" y="-183"/>
      <point x="400" y="-183" type="curve" smooth="yes"/>
      <point x="374" y="-183" type="line"/>
      <point x="374" y="-223" type="line"/>
    </contour>
  </outline>
</glyph>
<glyph name="v" format="1">
  <advance width="603"/>
  <unicode hex="0076"/>
  <outline>
    <contour>
      <point x="251" y="540" type="line"/>
      <point x="11" y="540" type="line"/>
      <point x="11" y="500" type="line"/>
      <point x="12" y="500" type="line"/>
      <point x="48" y="500"/>
      <point x="73" y="493"/>
      <point x="84" y="465" type="curve"/>
      <point x="162" y="491" type="line"/>
      <point x="162" y="498"/>
      <point x="210" y="500"/>
      <point x="250" y="500" type="curve"/>
      <point x="251" y="500" type="line"/>
    </contour>
    <contour>
      <point x="319" y="0" type="line"/>
      <point x="333" y="36" type="line"/>
      <point x="144" y="540" type="line"/>
      <point x="55" y="540" type="line"/>
      <point x="263" y="0" type="line"/>
    </contour>
    <contour>
      <point x="343" y="0" type="line"/>
      <point x="550" y="540" type="line"/>
      <point x="488" y="540" type="line"/>
      <point x="296" y="30" type="line"/>
      <point x="306" y="0" type="line"/>
    </contour>
    <contour>
      <point x="382" y="540" type="line"/>
      <point x="382" y="500" type="line"/>
      <point x="382" y="500" type="line"/>
      <point x="422" y="500"/>
      <point x="466" y="492"/>
      <point x="466" y="478" type="curve"/>
      <point x="516" y="452" type="line"/>
      <point x="530" y="490"/>
      <point x="559" y="500"/>
      <point x="591" y="500" type="curve"/>
      <point x="592" y="500" type="line"/>
      <point x="592" y="540" type="line"/>
    </contour>
  </outline>
</glyph>
<glyph name="w" format="1">
  <advance width="865"/>
  <unicode hex="0077"/>
  <outline>
    <contour>
      <point x="279" y="0" type="line"/>
      <point x="293" y="36" type="line"/>
      <point x="144" y="540" type="line"/>
      <point x="53" y="540" type="line"/>
      <point x="222" y="0" type="line"/>
    </contour>
    <contour>
      <point x="248" y="540" type="line"/>
      <point x="10" y="540" type="line"/>
      <point x="10" y="500" type="line"/>
      <point x="11" y="500" type="line"/>
      <point x="42" y="500"/>
      <point x="68" y="492"/>
      <point x="78" y="464" type="curve"/>
      <point x="158" y="491" type="line"/>
      <point x="158" y="498"/>
      <point x="204" y="500"/>
      <point x="247" y="500" type="curve"/>
      <point x="248" y="500" type="line"/>
    </contour>
    <contour>
      <point x="645" y="0" type="line"/>
      <point x="810" y="540" type="line"/>
      <point x="750" y="540" type="line"/>
      <point x="598" y="30" type="line"/>
      <point x="610" y="0" type="line"/>
    </contour>
    <contour>
      <point x="646" y="540" type="line"/>
      <point x="646" y="500" type="line"/>
      <point x="647" y="500" type="line"/>
      <point x="692" y="500"/>
      <point x="732" y="492"/>
      <point x="732" y="478" type="curve"/>
      <point x="783" y="453" type="line"/>
      <point x="794" y="488"/>
      <point x="824" y="500"/>
      <point x="854" y="500" type="curve"/>
      <point x="855" y="500" type="line"/>
      <point x="855" y="540" type="line"/>
    </contour>
    <contour>
      <point x="412" y="540" type="line"/>
      <point x="260" y="30" type="line"/>
      <point x="266" y="0" type="line"/>
      <point x="303" y="0" type="line"/>
      <point x="440" y="449" type="line"/>
      <point x="419" y="454" type="line"/>
      <point x="563" y="0" type="line"/>
      <point x="622" y="0" type="line"/>
      <point x="632" y="35" type="line"/>
      <point x="479" y="540" type="line"/>
    </contour>
  </outline>
</glyph>
<glyph name="y" format="1">
  <advance width="613"/>
  <unicode hex="0079"/>
  <outline>
    <contour>
      <point x="333" y="11" type="line"/>
      <point x="345" y="48" type="line"/>
      <point x="152" y="528" type="line"/>
      <point x="61" y="526" type="line"/>
      <point x="288" y="-18" type="line"/>
    </contour>
    <contour>
      <point x="353" y="17" type="curve" smooth="yes"/>
      <point x="556" y="526" type="line"/>
      <point x="492" y="528" type="line"/>
      <point x="314" y="72" type="line"/>
      <point x="305" y="51" type="line" smooth="yes"/>
      <point x="236" y="-129"/>
      <point x="183" y="-150"/>
      <point x="53" y="-150" type="curve"/>
      <point x="53" y="-232" type="line"/>
      <point x="218" y="-233"/>
      <point x="283" y="-157"/>
    </contour>
    <contour>
      <point x="255" y="540" type="line"/>
      <point x="11" y="540" type="line"/>
      <point x="11" y="500" type="line"/>
      <point x="12" y="500" type="line"/>
      <point x="50" y="500"/>
      <point x="75" y="493"/>
      <point x="86" y="465" type="curve"/>
      <point x="166" y="491" type="line"/>
      <point x="166" y="498"/>
      <point x="215" y="500"/>
      <point x="254" y="500" type="curve"/>
      <point x="255" y="500" type="line"/>
    </contour>
    <contour>
      <point x="389" y="540" type="line"/>
      <point x="389" y="500" type="line"/>
      <point x="389" y="500" type="line"/>
      <point x="429" y="500"/>
      <point x="472" y="491"/>
      <point x="472" y="477" type="curve"/>
      <point x="526" y="452" type="line"/>
      <point x="541" y="490"/>
      <point x="569" y="500"/>
      <point x="601" y="500" type="curve"/>
      <point x="602" y="500" type="line"/>
      <point x="602" y="540" type="line"/>
    </contour>
  </outline>
</glyph>
<glyph name="C.srf" format="1">
  <advance width="777"/>
  <outline>
    <contour>
      <point x="406" y="665" type="curve" smooth="yes"/>
      <point x="527" y="665"/>
      <point x="604" y="598"/>
      <point x="634" y="496" type="curve"/>
      <point x="711" y="496" type="line"/>
      <point x="711" y="710" type="line"/>
      <point x="658" y="710" type="line"/>
      <point x="644" y="552" type="line"/>
      <point x="646" y="549"/>
      <point x="657" y="564"/>
      <point x="665" y="558" type="curve"/>
      <point x="629" y="657"/>
      <point x="527" y="720"/>
      <point x="406" y="720" type="curve" smooth="yes"/>
      <point x="209" y="720"/>
      <point x="52" y="569"/>
      <point x="52" y="355" type="curve" smooth="yes"/>
      <point x="52" y="138"/>
      <point x="204" y="-10"/>
      <point x="416" y="-10" type="curve" smooth="yes"/>
      <point x="577" y="-10"/>
      <point x="691" y="89"/>
      <point x="725" y="232" type="curve"/>
      <point x="670" y="250" type="line"/>
      <point x="640" y="131"/>
      <point x="552" y="46"/>
      <point x="421" y="46" type="curve" smooth="yes"/>
      <point x="256" y="46"/>
      <point x="152" y="168"/>
      <point x="152" y="355" type="curve" smooth="yes"/>
      <point x="152" y="542"/>
      <point x="261" y="665"/>
    </contour>
  </outline>
</glyph>
<glyph name="E.alt" format="1">
  <advance width="650"/>
  <outline>
    <contour>
      <point x="145" y="0" type="line"/>
      <point x="238" y="0" type="line"/>
      <point x="238" y="710" type="line"/>
      <point x="145" y="710" type="line"/>
    </contour>
    <contour>
      <point x="208" y="388" type="line"/>
      <point x="208" y="338" type="line"/>
      <point x="440" y="338" type="line"/>
      <point x="440" y="388" type="line"/>
    </contour>
    <contour>
      <point x="51" y="710" type="line"/>
      <point x="51" y="669" type="line"/>
      <point x="61" y="669" type="line" smooth="yes"/>
      <point x="108" y="669"/>
      <point x="145" y="662"/>
      <point x="145" y="633" type="curve"/>
      <point x="202" y="659" type="line"/>
      <point x="382" y="659" type="line" smooth="yes"/>
      <point x="468" y="659"/>
      <point x="502" y="650"/>
      <point x="507" y="612" type="curve" smooth="yes"/>
      <point x="518" y="522" type="line"/>
      <point x="567" y="522" type="line"/>
      <point x="567" y="710" type="line"/>
    </contour>
    <contour>
      <point x="51" y="0" type="line"/>
      <point x="590" y="0" type="line"/>
      <point x="590" y="213" type="line"/>
      <point x="540" y="213" type="line"/>
      <point x="529" y="98" type="line" smooth="yes"/>
      <point x="524" y="60"/>
      <point x="489" y="51"/>
      <point x="403" y="51" type="curve" smooth="yes"/>
      <point x="201" y="51" type="line"/>
      <point x="145" y="77" type="line"/>
      <point x="145" y="48"/>
      <point x="108" y="41"/>
      <point x="61" y="41" type="curve" smooth="yes"/>
      <point x="51" y="41" type="line"/>
    </contour>
    <contour>
      <point x="462" y="267" type="line"/>
      <point x="462" y="460" type="line"/>
      <point x="421" y="460" type="line"/>
      <point x="421" y="454" type="line"/>
      <point x="421" y="419"/>
      <point x="411" y="388"/>
      <point x="382" y="388" type="curve"/>
      <point x="382" y="338" type="line"/>
      <point x="411" y="338"/>
      <point x="421" y="307"/>
      <point x="421" y="273" type="curve"/>
      <point x="421" y="267" type="line"/>
    </contour>
  </outline>
</glyph>
<glyph name="F.alt" format="1">
  <advance width="618"/>
  <outline>
    <contour>
      <point x="145" y="0" type="line"/>
      <point x="238" y="0" type="line"/>
      <point x="238" y="710" type="line"/>
      <point x="145" y="710" type="line"/>
    </contour>
    <contour>
      <point x="51" y="710" type="line"/>
      <point x="51" y="669" type="line"/>
      <point x="61" y="669" type="line" smooth="yes"/>
      <point x="108" y="669"/>
      <point x="145" y="662"/>
      <point x="145" y="633" type="curve"/>
      <point x="203" y="659" type="line"/>
      <point x="383" y="659" type="line" smooth="yes"/>
      <point x="469" y="659"/>
      <point x="504" y="650"/>
      <point x="508" y="612" type="curve" smooth="yes"/>
      <point x="520" y="522" type="line"/>
      <point x="569" y="522" type="line"/>
      <point x="569" y="710" type="line"/>
    </contour>
    <contour>
      <point x="51" y="0" type="line"/>
      <point x="348" y="0" type="line"/>
      <point x="348" y="41" type="line"/>
      <point x="330" y="41" type="line" smooth="yes"/>
      <point x="288" y="41"/>
      <point x="238" y="44"/>
      <point x="238" y="75" type="curve"/>
      <point x="145" y="77" type="line"/>
      <point x="145" y="48"/>
      <point x="108" y="41"/>
      <point x="61" y="41" type="curve" smooth="yes"/>
      <point x="51" y="41" type="line"/>
    </contour>
    <contour>
      <point x="208" y="378" type="line"/>
      <point x="208" y="328" type="line"/>
      <point x="458" y="328" type="line"/>
      <point x="458" y="378" type="line"/>
    </contour>
    <contour>
      <point x="479" y="257" type="line"/>
      <point x="479" y="450" type="line"/>
      <point x="438" y="450" type="line"/>
      <point x="438" y="444" type="line"/>
      <point x="438" y="409"/>
      <point x="428" y="378"/>
      <point x="399" y="378" type="curve"/>
      <point x="399" y="328" type="line"/>
      <point x="428" y="328"/>
      <point x="438" y="297"/>
      <point x="438" y="263" type="curve"/>
      <point x="438" y="257" type="line"/>
    </contour>
  </outline>
</glyph>
<glyph name="G.srf" format="1">
  <advance width="810"/>
  <outline>
    <contour>
      <point x="526" y="351" type="line"/>
      <point x="526" y="310" type="line"/>
      <point x="536" y="310" type="line" smooth="yes"/>
      <point x="586" y="310"/>
      <point x="622" y="303"/>
      <point x="622" y="274" type="curve"/>
      <point x="712" y="274" type="line"/>
      <point x="712" y="303"/>
      <point x="745" y="310"/>
      <point x="784" y="310" type="curve" smooth="yes"/>
      <point x="788" y="310" type="line"/>
      <point x="788" y="351" type="line"/>
    </contour>
    <contour>
      <point x="414" y="720" type="curve" smooth="yes"/>
      <point x="212" y="720"/>
      <point x="52" y="569"/>
      <point x="52" y="355" type="curve" smooth="yes"/>
      <point x="52" y="137"/>
      <point x="201" y="-10"/>
      <point x="426" y="-10" type="curve" smooth="yes"/>
      <point x="552" y="-10"/>
      <point x="674" y="59"/>
      <point x="712" y="119" type="curve"/>
      <point x="712" y="314" type="line"/>
      <point x="622" y="322" type="line"/>
      <point x="622" y="120" type="line"/>
      <point x="599" y="96"/>
      <point x="531" y="45"/>
      <point x="427" y="45" type="curve" smooth="yes"/>
      <point x="254" y="45"/>
      <point x="152" y="164"/>
      <point x="152" y="355" type="curve" smooth="yes"/>
      <point x="152" y="542"/>
      <point x="264" y="665"/>
      <point x="414" y="665" type="curve" smooth="yes"/>
      <point x="534" y="665"/>
      <point x="609" y="597"/>
      <point x="636" y="499" type="curve"/>
      <point x="712" y="499" type="line"/>
      <point x="712" y="710" type="line"/>
      <point x="659" y="710" type="line"/>
      <point x="646" y="556" type="line"/>
      <point x="648" y="552"/>
      <point x="661" y="567"/>
      <point x="669" y="561" type="curve"/>
      <point x="630" y="660"/>
      <point x="533" y="720"/>
    </contour>
  </outline>
</glyph>
<glyph name="Q.alt4" format="1">
  <advance width="802"/>
  <outline>
    <contour>
      <point x="401" y="-10" type="curve" smooth="yes"/>
      <point x="597" y="-10"/>
      <point x="751" y="139"/>
      <point x="751" y="355" type="curve" smooth="yes"/>
      <point x="751" y="572"/>
      <point x="597" y="720"/>
      <point x="401" y="720" type="curve" smooth="yes"/>
      <point x="205" y="720"/>
      <point x="52" y="572"/>
      <point x="52" y="355" type="curve" smooth="yes"/>
      <point x="52" y="139"/>
      <point x="205" y="-10"/>
    </contour>
    <contour>
      <point x="401" y="44" type="curve" smooth="yes"/>
      <point x="255" y="44"/>
      <point x="150" y="164"/>
      <point x="150" y="355" type="curve" smooth="yes"/>
      <point x="150" y="546"/>
      <point x="255" y="666"/>
      <point x="401" y="666" type="curve" smooth="yes"/>
      <point x="547" y="666"/>
      <point x="652" y="546"/>
      <point x="652" y="355" type="curve" smooth="yes"/>
      <point x="652" y="164"/>
      <point x="547" y="44"/>
    </contour>
    <contour>
      <point x="370" y="-7" type="line"/>
      <point x="362" y="-129"/>
      <point x="456" y="-184"/>
      <point x="580" y="-184" type="curve" smooth="yes"/>
      <point x="625" y="-184"/>
      <point x="676" y="-178"/>
      <point x="722" y="-168" type="curve"/>
      <point x="722" y="-78" type="line"/>
      <point x="672" y="-93"/>
      <point x="633" y="-107"/>
      <point x="567" y="-107" type="curve" smooth="yes"/>
      <point x="483" y="-107"/>
      <point x="423" y="-77"/>
      <point x="428" y="10" type="curve"/>
    </contour>
  </outline>
</glyph>
<glyph name="four.oldalt" format="1">
  <advance width="614"/>
  <outline>
    <contour>
      <point x="254" y="-137" type="line"/>
      <point x="254" y="-188" type="line"/>
      <point x="585" y="-188" type="line"/>
      <point x="585" y="-137" type="line"/>
      <point x="465" y="-137" type="line"/>
      <point x="465" y="-137" type="line"/>
      <point x="374" y="-137" type="line"/>
      <point x="374" y="-137" type="line"/>
    </contour>
    <contour>
      <point x="374" y="336" type="line"/>
      <point x="374" y="-188" type="line"/>
      <point x="465" y="-188" type="line"/>
      <point x="465" y="336" type="line"/>
    </contour>
    <contour>
      <point x="34" y="1" type="line"/>
      <point x="594" y="1" type="line"/>
      <point x="594" y="51" type="line"/>
      <point x="70" y="51" type="line"/>
      <point x="69" y="16" type="line"/>
      <point x="470" y="533" type="line"/>
      <point x="368" y="533" type="line"/>
      <point x="34" y="56" type="line"/>
    </contour>
  </outline>
</glyph>
